<?xml version="1.0" standalone="no"?>
<!DOCTYPE svg PUBLIC "-//W3C//DTD SVG 20010904//EN"
 "http://www.w3.org/TR/2001/REC-SVG-20010904/DTD/svg10.dtd">
<svg version="1.0" xmlns="http://www.w3.org/2000/svg"
 width="500.000000pt" height="500.000000pt" viewBox="0 0 500.000000 500.000000"
 preserveAspectRatio="xMidYMid meet">
<metadata>
Created by potrace 1.14, written by Peter Selinger 2001-2017
</metadata>
<g transform="translate(0.000000,500.000000) scale(0.100000,-0.100000)"
fill="#000000" stroke="none">
<path d="M2357 4875 c-1 -1 -38 -5 -82 -8 -44 -4 -89 -8 -100 -10 -11 -3 -42
-8 -70 -11 -87 -13 -286 -63 -395 -101 -186 -64 -445 -201 -605 -319 -301
-223 -545 -503 -702 -805 -18 -36 -37 -69 -42 -75 -12 -17 -91 -212 -123 -306
-31 -93 -58 -188 -65 -235 -2 -16 -8 -46 -13 -65 -5 -19 -12 -60 -15 -90 -4
-30 -9 -64 -11 -75 -7 -36 -15 -158 -15 -250 0 -98 10 -305 16 -315 2 -3 6
-32 10 -65 3 -33 11 -80 16 -105 6 -25 12 -52 14 -60 40 -187 135 -454 208
-582 108 -190 137 -234 244 -373 93 -120 204 -237 311 -326 48 -41 89 -76 92
-79 16 -16 158 -114 235 -162 144 -89 405 -207 538 -243 29 -7 68 -19 87 -24
37 -12 201 -46 260 -55 136 -21 474 -28 605 -13 96 12 285 47 345 65 30 8 60
17 65 18 6 1 54 15 107 33 223 71 533 240 719 391 103 84 257 233 320 311 19
22 44 53 57 67 12 15 35 45 50 67 15 22 30 42 33 45 9 8 93 139 131 205 34 60
128 252 128 262 0 3 7 19 15 36 56 120 136 451 152 627 10 111 10 384 0 485
-61 596 -346 1145 -812 1561 -75 67 -242 193 -275 207 -14 7 -27 14 -30 17
-47 54 -504 252 -660 285 -3 1 -18 4 -35 8 -16 4 -39 9 -50 11 -11 2 -38 9
-60 14 -22 6 -65 14 -95 17 -30 3 -64 9 -75 12 -18 5 -421 12 -428 8z"/>
</g>
</svg>
